{
    "accessors" : [
        {
            "bufferView" : 0,
            "componentType" : 5123,
            "count" : 2667,
            "max" : [
                949
            ],
            "min" : [
                0
            ],
            "type" : "SCALAR"
        },
        {
            "bufferView" : 1,
            "componentType" : 5126,
            "count" : 950,
            "max" : [
                0.037130206823349,
                0.14125370979309082,
                1.1464359760284424
            ],
            "min" : [
                -0.03713041543960571,
                -0.32712626457214355,
                -0.9623801708221436
            ],
            "type" : "VEC3"
        },
        {
            "bufferView" : 2,
            "componentType" : 5126,
            "count" : 950,
            "max" : [
                1.0,
                1.0,
                1.0
            ],
            "min" : [
                -1.0,
                -1.0,
                -1.0
            ],
            "type" : "VEC3"
        },
        {
            "bufferView" : 3,
            "componentType" : 5126,
            "count" : 950,
            "max" : [
                1.0,
                0.9999980926513672,
                0.9640387296676636,
                1.0
            ],
            "min" : [
                -1.0,
                -0.9999980926513672,
                -0.9999969005584717,
                -1.0
            ],
            "type" : "VEC4"
        },
        {
            "bufferView" : 4,
            "componentType" : 5126,
            "count" : 950,
            "max" : [
                0.9945582151412964,
                1.0
            ],
            "min" : [
                0.0,
                0.005434930324554443
            ],
            "type" : "VEC2"
        },
        {
            "bufferView" : 5,
            "componentType" : 5123,
            "count" : 384,
            "max" : [
                113
            ],
            "min" : [
                0
            ],
            "type" : "SCALAR"
        },
        {
            "bufferView" : 6,
            "componentType" : 5126,
            "count" : 114,
            "max" : [
                0.06138533353805542,
                0.053140878677368164,
                0.05724570155143738
            ],
            "min" : [
                -0.061385370790958405,
                -0.06962990760803223,
                -0.5294411182403564
            ],
            "type" : "VEC3"
        },
        {
            "bufferView" : 7,
            "componentType" : 5126,
            "count" : 114,
            "max" : [
                0.999420166015625,
                0.999420166015625,
                0.999969482421875
            ],
            "min" : [
                -0.999420166015625,
                -0.999420166015625,
                -1.0
            ],
            "type" : "VEC3"
        },
        {
            "bufferView" : 8,
            "componentType" : 5126,
            "count" : 114,
            "max" : [
                0.9999973177909851,
                0.9999973773956299,
                0.6954711675643921,
                1.0
            ],
            "min" : [
                -0.9999973177909851,
                -0.9999973773956299,
                -0.6954713463783264,
                1.0
            ],
            "type" : "VEC4"
        },
        {
            "bufferView" : 9,
            "componentType" : 5126,
            "count" : 114,
            "max" : [
                0.4450787603855133,
                0.4307323098182678
            ],
            "min" : [
                0.02724866196513176,
                0.055210769176483154
            ],
            "type" : "VEC2"
        }
    ],
    "asset" : {
        "generator" : "Khronos Blender glTF 2.0 exporter",
        "version" : "2.0"
    },
    "bufferViews" : [
        {
            "buffer" : 0,
            "byteLength" : 5334,
            "byteOffset" : 0,
            "target" : 34963
        },
        {
            "buffer" : 0,
            "byteLength" : 11400,
            "byteOffset" : 5336,
            "target" : 34962
        },
        {
            "buffer" : 0,
            "byteLength" : 11400,
            "byteOffset" : 16736,
            "target" : 34962
        },
        {
            "buffer" : 0,
            "byteLength" : 15200,
            "byteOffset" : 28136,
            "target" : 34962
        },
        {
            "buffer" : 0,
            "byteLength" : 7600,
            "byteOffset" : 43336,
            "target" : 34962
        },
        {
            "buffer" : 0,
            "byteLength" : 768,
            "byteOffset" : 50936,
            "target" : 34963
        },
        {
            "buffer" : 0,
            "byteLength" : 1368,
            "byteOffset" : 51704,
            "target" : 34962
        },
        {
            "buffer" : 0,
            "byteLength" : 1368,
            "byteOffset" : 53072,
            "target" : 34962
        },
        {
            "buffer" : 0,
            "byteLength" : 1824,
            "byteOffset" : 54440,
            "target" : 34962
        },
        {
            "buffer" : 0,
            "byteLength" : 912,
            "byteOffset" : 56264,
            "target" : 34962
        }
    ],
    "buffers" : [
        {
            "byteLength" : 57176,
            "uri" : "shotgun.bin"
        }
    ],
    "images" : [
        {
            "name" : "M500",
            "uri" : "M500.jpg"
        }
    ],
    "materials" : [
        {
            "name" : "Material.013",
            "pbrMetallicRoughness" : {
                "baseColorFactor" : [
                    0.6400000190734865,
                    0.6400000190734865,
                    0.6400000190734865,
                    1.0
                ],
                "baseColorTexture" : {
                    "index" : 0
                },
                "metallicFactor" : 0.0
            }
        },
        {
            "name" : "Material.015",
            "pbrMetallicRoughness" : {
                "baseColorFactor" : [
                    0.6400000190734865,
                    0.6400000190734865,
                    0.6400000190734865,
                    1.0
                ],
                "metallicFactor" : 0.0
            }
        }
    ],
    "meshes" : [
        {
            "name" : "Cylinder.004",
            "primitives" : [
                {
                    "attributes" : {
                        "NORMAL" : 2,
                        "POSITION" : 1,
                        "TANGENT" : 3,
                        "TEXCOORD_0" : 4
                    },
                    "indices" : 0,
                    "material" : 0
                },
                {
                    "attributes" : {
                        "NORMAL" : 7,
                        "POSITION" : 6,
                        "TANGENT" : 8,
                        "TEXCOORD_0" : 9
                    },
                    "indices" : 5,
                    "material" : 1
                }
            ]
        }
    ],
    "nodes" : [
        {
            "mesh" : 0,
            "name" : "Mossberg 500"
        }
    ],
    "samplers" : [
        {}
    ],
    "scene" : 0,
    "scenes" : [
        {
            "name" : "Scene",
            "nodes" : [
                0
            ]
        }
    ],
    "textures" : [
        {
            "sampler" : 0,
            "source" : 0
        }
    ]
}
